<?xml version="1.0" standalone="no"?>
<!DOCTYPE svg PUBLIC "-//W3C//DTD SVG 20010904//EN"
 "http://www.w3.org/TR/2001/REC-SVG-20010904/DTD/svg10.dtd">
<svg version="1.0" xmlns="http://www.w3.org/2000/svg"
 width="512.000000pt" height="512.000000pt" viewBox="0 0 512.000000 512.000000"
 preserveAspectRatio="xMidYMid meet">

<g transform="translate(0.000000,512.000000) scale(0.100000,-0.100000)"
fill="#000000" stroke="none">
<path d="M2488 5099 c-45 -23 -24 14 -231 -409 -93 -190 -170 -346 -172 -348
-3 -4 -14 0 -319 112 -99 36 -193 66 -210 66 -70 0 -145 -75 -146 -144 0 -37
307 -1062 328 -1094 8 -13 32 -32 53 -43 37 -18 65 -19 769 -19 713 0 732 0
770 20 25 13 47 34 58 58 26 50 322 1042 322 1076 0 71 -76 146 -148 146 -16
0 -140 -41 -276 -91 -136 -50 -249 -89 -251 -87 -2 1 -79 158 -172 348 -208
424 -186 386 -233 410 -49 25 -94 25 -142 -1z"/>
<path d="M1788 2879 c-23 -12 -46 -35 -58 -59 -20 -39 -20 -56 -20 -1430 l0
-1390 850 0 850 0 0 1390 c0 1374 0 1391 -20 1430 -13 26 -34 47 -60 60 -38
20 -57 20 -772 20 -710 -1 -734 -2 -770 -21z m892 -699 c26 -13 47 -34 60 -60
19 -38 20 -58 20 -670 0 -612 -1 -632 -20 -670 -23 -45 -80 -80 -131 -80 -46
0 -108 39 -130 82 -18 35 -19 65 -19 480 l0 444 -39 -4 c-55 -5 -115 28 -141
78 -25 49 -25 90 -1 138 23 43 210 231 261 261 44 26 90 27 140 1z"/>
<path d="M3710 1150 l0 -1150 640 0 c622 0 642 1 680 20 26 13 47 34 60 60 20
39 20 57 20 1070 0 1013 0 1031 -20 1070 -13 26 -34 47 -60 60 -38 19 -58 20
-680 20 l-640 0 0 -1150z"/>
<path d="M88 1679 c-23 -12 -46 -35 -58 -59 -19 -38 -20 -58 -20 -770 0 -713
0 -732 20 -770 13 -26 34 -47 60 -60 38 -19 58 -20 680 -20 l640 0 0 850 0
850 -642 0 c-620 -1 -644 -2 -680 -21z"/>
</g>
</svg>
